<svg baseProfile="tiny" xmlns="http://www.w3.org/2000/svg" width="370" height="100" viewBox="0 0 370 100">
  <title>Img-Mappy</title>
  <desc>Simple GUI to create HTML image map coordinates.</desc>
  <defs>
    <linearGradient id="gradient" gradientUnits="userSpaceOnUse" spreadMethod="pad" x1="0%" y1="0%" x2="0%" y2="100%">
      <stop offset="0%" stop-color="#B5FFFC"/>
      <stop offset="97%" stop-color="#FFDEE9"/>
    </linearGradient>
    <filter id="dropshadow" height="130%">
      <feGaussianBlur in="SourceAlpha" stdDeviation="2"/> 
      <feOffset dx="0" dy="3" result="offsetblur"/>
      <feComponentTransfer>
        <feFuncA type="linear" slope="0.1"/>
      </feComponentTransfer>
      <feMerge> 
        <feMergeNode/>
        <feMergeNode in="SourceGraphic"/> 
      </feMerge>
    </filter>
  </defs>
  <g fill="url(#gradient)" filter="url(#dropshadow)">
    <path d="M8.69 73.66l11.441-53.577c-2.529 1.327-4.56 3.14-6.05 5.406-1.828 2.779-2.756 6.242-2.756 10.291 0 2.259.251 3.25.461 3.685.597 1.241.659 1.487.659 1.755v1h-1c-3.111 0-5.496-.686-7.087-2.038-1.641-1.393-2.473-3.654-2.473-6.722 0-3.645 1.495-7.216 4.444-10.615 2.882-3.32 6.616-6.043 11.1-8.094 4.483-2.051 9.037-3.091 13.536-3.091.774 0 1.846.053 3.276.163l1.139.087-13.124 61.75H8.69zM81.046 74.141c-3.538 0-6.2-.989-7.911-2.941-1.678-1.911-2.528-4.3-2.528-7.099 0-1.182.141-2.523.418-3.986.268-1.422.55-2.806.846-4.149.299-1.364.501-2.222.615-2.621.411-1.806.81-3.639 1.182-5.445.358-1.742.539-3.154.539-4.198 0-3.08-1.27-3.08-1.88-3.08-1.072 0-2.019.542-2.893 1.657-.982 1.252-1.786 2.929-2.387 4.985l-5.59 26.398H47.893l6.096-28.807c.147-.593.218-1.184.218-1.793 0-2.521-.945-2.521-1.399-2.521-1.187 0-2.2.545-3.101 1.666-1.004 1.25-1.817 2.948-2.418 5.05L41.697 73.66H28.132l8.904-42H50.6l-.486 2.301c2.392-1.795 5.116-2.701 8.133-2.701 4.372 0 7.331 1.917 8.665 5.575 2.914-3.648 6.504-5.495 10.695-5.495 2.968 0 5.377.844 7.162 2.509 1.804 1.684 2.718 4.218 2.718 7.531 0 1.602-.194 3.403-.579 5.354-.371 1.886-.914 4.231-1.611 6.974-.417 1.612-.805 3.229-1.153 4.808-.329 1.491-.496 2.67-.496 3.506 0 .825.166 1.446.494 1.846.347.425 1.119.514 1.706.514 1.302 0 2.307-.445 3.073-1.361.888-1.061 1.802-2.759 2.718-5.05l.252-.629h5.428l-.443 1.318c-2.057 6.116-4.404 10.131-7.176 12.273-2.757 2.128-5.667 3.208-8.654 3.208z"/>
    <path d="M106.646 93.66c-2.742 0-5.182-.902-7.251-2.683-2.116-1.816-3.189-4.157-3.189-6.957 0-2.566.665-4.712 1.975-6.379 1.131-1.44 2.574-2.617 4.299-3.505-.104.003-.209.004-.313.004-3.306 0-6.104-1.151-8.315-3.422-2.206-2.265-3.324-5.783-3.324-10.459 0-4.042.814-8.342 2.42-12.779 1.617-4.469 4.068-8.312 7.286-11.419 3.3-3.186 7.287-4.801 11.854-4.801 2.417 0 4.201.425 5.454 1.3.258.182.493.377.704.586l.31-1.486h13.646l-10.015 47.606c-1.113 5.343-3.142 9.125-6.026 11.24-2.86 2.094-6.06 3.154-9.515 3.154zm2.502-17.52c-1.913.771-3.45 1.632-4.584 2.571-1.317 1.089-1.958 2.459-1.958 4.189 0 .125 0 .506.618 1.047.456.399.974.593 1.582.593.661 0 1.304-.371 1.964-1.134.74-.857 1.339-2.312 1.779-4.32l.599-2.946zm5.418-37.92c-1.8 0-3.414 1.075-4.936 3.288-1.635 2.373-2.933 5.285-3.859 8.658-.933 3.392-1.405 6.412-1.405 8.976 0 3.227.598 4.151.854 4.399.584.565 1.285.84 2.146.84.982 0 2.019-.447 3.081-1.329 1.087-.902 1.88-2.228 2.356-3.938l4.018-19.073c-.343-1.274-1.027-1.821-2.255-1.821z"/>
    <polygon points="133.232 55.9 135.128 47.58 153.164 47.58 151.373 55.9"/>
    <path d="M193.413 73.66l4.181-29.337-12.283 29.337H172.64l1.363-30.737-11.382 30.737h-8.531l20.052-54.235c-2.879 1.279-5.188 3.109-6.885 5.46-2.078 2.879-3.132 6.518-3.132 10.815 0 2.44.285 3.374.454 3.713.563 1.128.666 1.493.666 1.807v1h-1c-7.901 0-9.561-4.502-9.561-8.279 0-3.516 1.348-7.07 4.005-10.565 2.607-3.432 6.002-6.271 10.087-8.438 4.101-2.174 8.256-3.277 12.349-3.277 2.078 0 4.237.396 6.418 1.179l.693.249-1.627 37.276 15.689-37.584h13.339l-8.686 60.88h-13.538zM242.484 74.141c-2.488 0-4.533-.722-6.078-2.146-1.068-.983-1.843-2.277-2.313-3.861-1.244 1.482-2.592 2.749-4.024 3.778-2.061 1.479-4.532 2.229-7.345 2.229-3.306 0-6.104-1.151-8.315-3.422-2.206-2.265-3.324-5.783-3.324-10.459 0-4.042.814-8.342 2.42-12.779 1.616-4.469 4.067-8.312 7.286-11.419 3.299-3.186 7.287-4.801 11.854-4.801 2.417 0 4.2.425 5.453 1.3.287.201.544.419.771.654l.323-1.554h13.568l-6.017 28.407c-.202.76-.298 1.534-.298 2.353 0 1.756.639 2.44 2.279 2.44 1.182 0 2.194-.556 3.096-1.699 1.008-1.28 1.823-2.995 2.423-5.096l.207-.726h5.515l-.453 1.324c-2.035 5.938-4.623 10.047-7.689 12.213-3.067 2.166-6.209 3.264-9.339 3.264zm-7.36-35.921c-1.8 0-3.414 1.075-4.936 3.288-1.635 2.373-2.933 5.285-3.86 8.658-.932 3.392-1.404 6.412-1.404 8.976 0 3.227.598 4.151.854 4.399.584.565 1.285.84 2.146.84 1.061 0 2.159-.539 3.268-1.602 1.155-1.106 1.961-2.672 2.396-4.653l3.813-17.958c-.023-.432-.214-.866-.579-1.324-.336-.42-.891-.624-1.698-.624z"/>
    <path d="M260.473 28.7h13.565l-.995 4.669c2.338-1.402 4.965-2.11 7.84-2.11 3.269 0 5.915 1.108 7.866 3.294 1.921 2.155 2.895 5.636 2.895 10.347 0 4.285-.632 8.67-1.879 13.034-1.269 4.436-3.45 8.266-6.484 11.383-3.116 3.2-7.261 4.823-12.317 4.823-2.7 0-4.787-.58-6.236-1.729l-3.877 18.195L246.616 94l13.857-65.3zm6.011 35.548c.231.473.715.932 1.999.932 2.233 0 4.046-1.038 5.54-3.173 1.598-2.281 2.784-5.059 3.526-8.253.752-3.247 1.134-6.307 1.134-9.094 0-5.64-2.258-5.64-3-5.64-.746 0-1.536.289-2.346.858-.831.584-1.582 1.404-2.232 2.439l-4.621 21.931zM297.912 28.7h13.565l-.995 4.669c2.338-1.402 4.965-2.11 7.84-2.11 3.269 0 5.915 1.108 7.866 3.294 1.921 2.155 2.895 5.636 2.895 10.347 0 4.285-.632 8.67-1.879 13.034-1.269 4.436-3.45 8.266-6.484 11.383-3.116 3.2-7.261 4.823-12.317 4.823-2.7 0-4.787-.58-6.236-1.729l-3.877 18.195L284.056 94l13.856-65.3zm6.012 35.548c.231.473.715.932 1.999.932 2.233 0 4.046-1.038 5.54-3.173 1.598-2.281 2.784-5.059 3.526-8.253.752-3.247 1.134-6.307 1.134-9.094 0-5.64-2.258-5.64-3-5.64-.746 0-1.536.289-2.346.858-.831.584-1.582 1.404-2.232 2.439l-4.621 21.931zM342.562 93.66c-2.742 0-5.183-.902-7.253-2.682-2.115-1.818-3.188-4.159-3.188-6.958 0-2.566.664-4.713 1.974-6.379 1.133-1.442 2.578-2.619 4.303-3.506-.132.003-.264.005-.396.005-2.826 0-5.151-.908-6.913-2.699-1.756-1.785-2.646-4.444-2.646-7.901 0-1.389.222-3.204.659-5.396l5.61-26.484h13.564l-6.016 28.407c-.148.593-.219 1.185-.219 1.793 0 2.52.946 2.52 1.4 2.52 1.196 0 2.203-.5 3.078-1.528.97-1.139 1.765-2.751 2.361-4.792l5.59-26.399h13.643L358.1 79.267c-1.114 5.343-3.142 9.125-6.027 11.24-2.858 2.093-6.058 3.153-9.511 3.153zm2.501-17.52c-1.912.771-3.45 1.632-4.585 2.571-1.317 1.089-1.957 2.459-1.957 4.189 0 .125 0 .507.618 1.047.456.399.973.593 1.581.593.661 0 1.304-.371 1.965-1.135.738-.855 1.337-2.31 1.779-4.32l.599-2.945z"/>
  </g>
</svg>
